<svg xmlns="http://www.w3.org/2000/svg" width="800" height="800" viewBox="0 0 800 800" role="img" aria-label="Product placeholder">
  <rect width="800" height="800" fill="#f3f3f3"/>
  <rect x="150" y="310" width="500" height="180" rx="24" fill="#ffffff" stroke="#e0e0e0" stroke-width="8"/>
  <g fill="#dadada">
    <rect x="190" y="350" width="48" height="36" rx="6"/>
    <rect x="252" y="350" width="48" height="36" rx="6"/>
    <rect x="314" y="350" width="48" height="36" rx="6"/>
    <rect x="376" y="350" width="48" height="36" rx="6"/>
    <rect x="438" y="350" width="48" height="36" rx="6"/>
    <rect x="500" y="350" width="48" height="36" rx="6"/>
    <rect x="562" y="350" width="48" height="36" rx="6"/>
    <rect x="190" y="405" width="78" height="36" rx="6"/>
    <rect x="282" y="405" width="48" height="36" rx="6"/>
    <rect x="344" y="405" width="48" height="36" rx="6"/>
    <rect x="406" y="405" width="48" height="36" rx="6"/>
    <rect x="468" y="405" width="142" height="36" rx="6"/>
  </g>
  <circle cx="632" cy="328" r="14" fill="#ff6700"/>
</svg>
